<?xml version="1.0" encoding="UTF-8"?>
<svg id="Capa_1" data-name="Capa 1" xmlns="http://www.w3.org/2000/svg" viewBox="0 0 1920 1080">
  <defs>
    <style>
      .cls-1 {
        fill: #f9f9f9;
      }
    </style>
  </defs>
  <path class="cls-1" d="M1404.35,507.13c-1.12-1.49-4.43-2.08-6.81-1.36l-34.74,10.49c-25.82,7.79-51.61,13.89-78.44,16.66,3.73-17.56-6.81-31.36-23.76-32.95-18.11-1.7-35.47,4.09-50.62,14.25-4.39,3.15-6.76,7.45-8.41,12.53l-6.72,5.33-9,9.02c-19.19,12.11-39.01,21.96-59.75,31.1-7.02,3.1-13.54,4.92-21.32,6.06,2.49-9.22,5.19-16.8,9.71-24.7,14.71-25.73,30.98-49.58,47.5-74.29l39.65-59.3c2.47-3.71-1-8.8-4.06-9.85-2.44-.83-7.76-.95-9.96,2.17l-70.83,100.52-12.5,15.76c-8.27-10.3-23.1-9.64-34.85-4.93-18.34,7.34-34.05,19.03-46.72,34.15l-49.55,26.35c-6.44,3.43-12.86,5.22-20.13,5.98.98-7.35,3.56-12.94,7.14-18.88l15.85-26.29c1.79-2.96-1.43-7.62-3.48-8.9-2.46-1.53-6.83-3.19-9.35-.83-16.35,15.29-32.91,29.18-51.51,41.42-8.55,5.63-16.75,10.18-27.23,13.45,2.71-8,6.05-15.12,11.48-21.17l20.29-22.58c2.92-3.26,3.03-7.42-.17-10.35-4.28-3.92-10.11-4.2-14.36-.06l-11.05,10.77c-20.27,13.8-40.95,25.69-62.62,37.18-12.66,6.72-25.11,12.1-38.7,16.45-4.38,1.41-9.26,1.93-13.75,1.1-.83-4.07.24-8.89,2.35-12.55,6.45-11.17,13.31-21.43,22.06-30.97l39.12-42.71c2.9-3.17,3.92-7.22,2.07-10.93-1.38-2.79-6.3-5.37-10.24-4.57-14.19,2.9-27.9,5.96-42.14,4.93l6.1-12.95c.9-1.93-.47-6.44-1.84-7.82-5.78-5.82-18.58,1.48-24.35,8.71-4.79,6.01-5.07,14.02.61,19.51-38.2,50.46-82.41,101.72-140.54,128.41-23.56,10.82-55.99,14.93-67.19-10-12.65-28.15-.53-64.63,12.52-92.65,16.39-35.2,38.59-66.28,65.07-94.64,20.29-21.74,42.09-40.99,67.59-56.21,16.56-9.88,38.59-19.9,56.9-16.47,7.03,1.32,11.77,6.67,12.38,13.8.56,6.56-.71,13.6-3.25,20.73.25.71.54,1.4.86,2.06,2.11.96,4.14,2.11,6.36,2.83.67.22,1.34.37,2.01.5,1.89.02,3.72-.15,5.41-.61,2.9-8.32,4.52-16.75,4.32-24.97-.33-13.91-8.19-25.02-22-28.57-25.32-6.52-52.5,4.26-75.02,17.54-55.6,32.8-104.94,91.01-134.63,148-9.73,18.67-16.88,37.57-20.94,58.04-6.44,32.53.36,71.07,34.22,81.84,25.74,8.18,53.05-1.08,76.43-14.31,52.34-29.61,96.75-80.49,131.04-129.66,11.07,2.02,21.31,1.61,32.51.22l-31.67,33.7-16.19,21.84c-4.88,6.59-8.05,15.1-8.26,23.34-.29,10.88,7.67,18.77,18.09,19.93,15.87,1.76,41.47-8.8,56.37-17.11l37.4-20.85c-1.56,5.05-3.2,10.2-2.23,15.1,1.64,8.36,10.06,12.83,18.2,11.32,7.06-1.31,13.94-3.36,19.95-7.23l33.09-21.26c-1.35,6.47-2.73,12.85-.63,18.76,4.31,12.18,21.43,11.26,33.22,5.24l39.08-19.93c-.45,5.53.56,10.42,4.29,13.56,3.13,2.63,8.14,4.42,12.81,3.53,10.75-2.06,20.81-5.93,29.72-12.24l33.19-23.52-2.77,13.94c-1.04,5.23,2.8,10.81,5.94,13.53,4.4,3.82,9.35,3.89,15.07,3.71,9.57-2.05,18.68-5.24,27.46-9.71l36.47-18.55c-3.46,11.93,2.15,23.88,14.05,27.76,6.91,2.26,14.36,2.41,21.87,1.26,25.2-3.85,47.77-16.31,64.54-35.33l8.03-11.39c21.55-2.35,42.35-6.26,63.49-11.96,20.69-5.57,40.28-11.3,59.48-20.48,1.73-.82,2.04-6.31.92-7.78ZM779.86,502.42s-3.22-4.72,2.78-9c6-4.29-2.78,9-2.78,9ZM1053.2,570.26c-8.13,5.17-15.74,9.69-26.14,12.35,2.63-7.25,7.46-12.39,12.47-18.03,11.4-12.84,24.81-23.61,40.85-29.95,5.2-2.06,10.91-1.85,14.55,2.83-12.32,12.9-26.43,23.52-41.73,32.8ZM1201.3,580.66c-4.37.6-9.8-.27-11.93-3.17-6.01-8.14,12.82-29.57,23.4-37.68,5.42,2.27,10.46,4.74,16.09,5.24l33.61,2.97c-15.96,17.89-37.4,29.34-61.17,32.64ZM1270.26,533.5c-14.39.81-28.31-.46-42.6-3.57,1.77-3.37,2.44-5.93,2.4-10.07,12.4-6.55,33.05-11.47,39.72-1.17,2.91,4.49,2.59,10.13.48,14.81Z"/>
  <path class="cls-1" d="M1261.53,584.09c-1.81.31-2.49,2.9-1.41,4.39s3.23,1.84,5,1.34,3.24-1.69,4.67-2.85c.93-.75,1.92-1.62,2.09-2.8.29-1.92-1.89-3.47-3.83-3.32s-3.57,1.43-5.08,2.65"/>
</svg>